<?xml version="1.0" ?>
<svg data-name="Layer 1" id="Layer_1" viewBox="0 0 100 100" xmlns="http://www.w3.org/2000/svg" xmlns:xlink="http://www.w3.org/1999/xlink">
	<title/>
	<defs>
		<symbol id="icon">
			<path d="M28.65,56.63a16.33,16.33,0,0,0,11-28.42A34.35,34.35,0,0,1,75,36.43a6,6,0,0,0,8.49-8.49,46.28,46.28,0,0,0-65-.44A16.34,16.34,0,0,0,28.65,56.63Zm0-20.71a4.35,4.35,0,1,1-4.35,4.35A4.36,4.36,0,0,1,28.65,35.92Z"/><path d="M46.8,90.63A46,46,0,0,0,79.07,77.51a16.36,16.36,0,1,0-21.18-.72,34.35,34.35,0,0,1-35.35-8.21,6,6,0,0,0-8.49,8.49A46,46,0,0,0,46.8,90.63ZM68.9,60.38a4.35,4.35,0,1,1-4.35,4.35A4.36,4.36,0,0,1,68.9,60.38Z"/>
		</symbol>
	</defs>
	<use xlink:href="#icon" x="0" y="0" fill="#000" />
</svg>