<?xml version="1.0" ?>
<svg data-name="Layer 1" id="Layer_1" viewBox="0 0 100 100" xmlns="http://www.w3.org/2000/svg" xmlns:xlink="http://www.w3.org/1999/xlink">
	<title/>
	<defs>
		<symbol id="icon">
			<path d="M23.56,64.84l-7.28,7.28a6,6,0,0,0,8.49,8.49L32,73.32l8.37,8.37a6,6,0,0,0,8.49-8.49l-8.37-8.37L67.68,37.69l-2.94,14A6,6,0,1,0,76.48,54.2l7.07-33.76v0s0-.1,0-.15a6,6,0,0,0,.09-.89c0-.08,0-.15,0-.23a6,6,0,0,0-.1-1c0-.06,0-.13,0-.19a6,6,0,0,0-.25-.84l-.08-.21a6,6,0,0,0-.47-.89l-.14-.2a5.36,5.36,0,0,0-1.51-1.51l-.21-.14a6,6,0,0,0-.88-.46l-.22-.08a6,6,0,0,0-.81-.24l-.22-.05a6,6,0,0,0-1-.09h-.25a6,6,0,0,0-.89.09l-.15,0h0L42.69,20.4a6,6,0,1,0,2.46,11.75l14-2.94L32,56.35,23.67,48a6,6,0,0,0-8.49,8.49Z"/>
		</symbol>
	</defs>
	<use xlink:href="#icon" x="0" y="0" fill="#043f74" />
</svg>