<svg data-name="Layer 1" id="Layer_1" viewBox="0 0 100 100" xmlns="http://www.w3.org/2000/svg" xmlns:xlink="http://www.w3.org/1999/xlink">
	<title/>
	<defs>
		<symbol id="icon">
			<path d="M69.11,53.56a15,15,0,0,0-7.58-.38V27.85A15.3,15.3,0,0,0,36.87,15.72,15.3,15.3,0,0,0,12.23,27.85a6,6,0,1,0,12,0,3.32,3.32,0,0,1,6.65,0v26a6,6,0,0,0,12,0v-26a3.32,3.32,0,0,1,6.65,0V60.18l-13.88,10a6,6,0,1,0,7,9.74l8.12-5.85a15.08,15.08,0,1,0,18.32-20.5ZM67.5,68.88a3.08,3.08,0,0,1-6-.52c0-.13,0-.26,0-.4v-.52a3,3,0,0,1,.09-.42,3.09,3.09,0,0,1,5.89,1.86Z"/>
		</symbol>
	</defs>
	<use xlink:href="#icon" x="0" y="0" fill="#7f7f7f" />
</svg>