<?xml version="1.0" ?>
<svg data-name="Layer 1" id="Layer_1" viewBox="0 0 100 100" xmlns="http://www.w3.org/2000/svg" xmlns:xlink="http://www.w3.org/1999/xlink">
	<title/>
	<defs>
		<symbol id="icon">
			<path d="M73.09,30.52a15.28,15.28,0,0,0-24.17-8.39,15.22,15.22,0,0,0-18.65,0A15.3,15.3,0,0,0,5.63,34.27a6,6,0,1,0,12,0,3.32,3.32,0,1,1,6.65,0v26a6,6,0,1,0,12,0v-26a3.32,3.32,0,1,1,6.65,0v26a6,6,0,0,0,12,0v-26a3.32,3.32,0,1,1,6.65,0V39.5c0,.11,0,.22,0,.33V69.67L52,79.21a6,6,0,1,0,8.48,8.49l4.18-4.18a15.06,15.06,0,0,0,27-9.15,6,6,0,0,0-12,0,3.08,3.08,0,0,1-6.14.24L88.06,60.16a17.47,17.47,0,0,0-15-29.64Zm6.48,21.15-6,6V42.72a5.49,5.49,0,0,1,6,8.95Z"/>
		</symbol>
	</defs>
	<use xlink:href="#icon" x="0" y="0" fill="#000" />
</svg>