<?xml version="1.0" ?>
<svg data-name="Layer 1" id="Layer_1" viewBox="0 0 100 100" xmlns="http://www.w3.org/2000/svg" xmlns:xlink="http://www.w3.org/1999/xlink">
	<title/>
	<defs>
		<symbol id="icon">
			<path d="M17.83,91.39H74a6,6,0,0,0,0-12H17.83a6,6,0,0,0,0,12Z"/><path d="M17.83,70.87H31.32a6,6,0,0,0,4.24-10.24,14.64,14.64,0,1,1,20.7,0A6,6,0,0,0,60.5,70.87H74a6,6,0,0,0,0-12H71.12a26.63,26.63,0,1,0-50.42,0H17.83a6,6,0,0,0,0,12Z"/>
		</symbol>
	</defs>
	<use xlink:href="#icon" x="0" y="0" fill="#000" />
</svg>