<?xml version="1.0" ?>
<svg data-name="Layer 1" id="Layer_1" viewBox="0 0 100 100" xmlns="http://www.w3.org/2000/svg" xmlns:xlink="http://www.w3.org/1999/xlink">
	<title/>
	<defs>
		<symbol id="icon">
			<path d="M24,81.46A16.5,16.5,0,0,0,40.22,64.77c0-.05,0-.11,0-.16s0-.1,0-.16V41.94a5.79,5.79,0,0,1,5.53-6,5.79,5.79,0,0,1,5.53,6V73.45a17.53,17.53,0,1,0,35.05,0,6,6,0,0,0-12,0,5.54,5.54,0,1,1-11.05,0V41.94a17.79,17.79,0,0,0-17.53-18,17.79,17.79,0,0,0-17.53,18v6.74a15.78,15.78,0,0,0-4.26-.6,16.7,16.7,0,0,0,0,33.38Zm0-21.38a4.71,4.71,0,0,1,0,9.38,4.71,4.71,0,0,1,0-9.38Z"/>
		</symbol>
	</defs>
	<use xlink:href="#icon" x="0" y="0" fill="#7f7f7f" />
</svg>