<?xml version="1.0" ?>
<svg data-name="Layer 1" id="Layer_1" viewBox="0 0 100 100" xmlns="http://www.w3.org/2000/svg" xmlns:xlink="http://www.w3.org/1999/xlink">
	<title/>
	<defs>
		<symbol id="icon">
			<path d="M86,52.3a6,6,0,0,0-8.49,0L72,57.8A6,6,0,0,0,75.69,68a3.44,3.44,0,0,1-6.84-.45V29.82A14.74,14.74,0,0,0,45.31,18a14.66,14.66,0,0,0-17.54,0A14.74,14.74,0,0,0,4.24,29.82a6,6,0,1,0,12,0,2.77,2.77,0,1,1,5.54,0V54.29a6,6,0,0,0,12,0V29.82a2.77,2.77,0,1,1,5.54,0V54.29a6,6,0,0,0,12,0V29.82a2.77,2.77,0,1,1,5.54,0V67.54a6.08,6.08,0,0,0,0,.61A15.43,15.43,0,0,0,87.71,68a6,6,0,0,0,3.76-10.2Z"/>
		</symbol>
	</defs>
	<use xlink:href="#icon" x="0" y="0" fill="#7f7f7f" />
</svg>