<?xml version="1.0" ?>
<svg data-name="Layer 1" id="Layer_1" viewBox="0 0 100 100" xmlns="http://www.w3.org/2000/svg" xmlns:xlink="http://www.w3.org/1999/xlink">
	<title/>
	<defs>
		<symbol id="icon">
			<path d="M25.16,60.65A24.67,24.67,0,1,0,65.92,42a24.61,24.61,0,0,0,8.57-18.67,6,6,0,0,0-12,0,12.67,12.67,0,0,1-25.33,0,6,6,0,0,0-12,0A24.61,24.61,0,0,0,33.73,42,24.61,24.61,0,0,0,25.16,60.65ZM49.83,48A12.67,12.67,0,1,1,37.16,60.65,12.68,12.68,0,0,1,49.83,48Z"/>
		</symbol>
	</defs>
	<use xlink:href="#icon" x="0" y="0" fill="#000" />
</svg>