<svg xmlns="http://www.w3.org/2000/svg" xmlns:xlink="http://www.w3.org/1999/xlink" version="1.1" xml:space="preserve" width="64" height="64"><rect id="backgroundrect" width="100%" height="100%" x="0" y="0" fill="none" stroke="none"/>
	<title/>
	<defs>
		<symbol id="icon">
			<g id="svg_1"><g id="svg_2"><path d="M32,55.89999999999998 c-13.2,0 -23.9,-10.7 -23.9,-23.9 S18.8,8.100000000000023 32,8.100000000000023 s23.9,10.7 23.9,23.9 S45.2,55.89999999999998 32,55.89999999999998 L32,55.89999999999998 zM32,10.699999999999989 c-11.7,0 -21.3,9.6 -21.3,21.3 s9.6,21.3 21.3,21.3 s21.3,-9.6 21.3,-21.3 S43.7,10.699999999999989 32,10.699999999999989 L32,10.699999999999989 z" id="svg_3"/><polyline points="31.5,45.70001220703125 29.700000047683716,43.79998779296875 41.39999961853027,32 29.700000047683716,20.20001220703125 31.5,18.29998779296875 45.20000076293945,32 31.5,45.70001220703125 " id="svg_4"/><polygon points="43.30000019073486,33.399993896484375 19.300000190734863,33.399993896484375 19.300000190734863,30.600006103515625 43.30000019073486,30.600006103515625 " id="svg_5"/></g></g>
		</symbol>
	</defs>
	
<g class="currentLayer"><title>Layer 1</title><use xlink:href="#icon" x="0" y="0" fill="#bfbfbf" id="svg_6" class="selected"/></g></svg>