<?xml version="1.0" ?>
<svg data-name="Layer 1" id="Layer_1" viewBox="0 0 100 100" xmlns="http://www.w3.org/2000/svg" xmlns:xlink="http://www.w3.org/1999/xlink">
	<title/>
	<defs>
		<symbol id="icon">
			<path d="M18.12,79.56l7.63-7.63,7.63,7.63a6,6,0,0,0,8.48,0l7.63-7.63,7.63,7.63a6,6,0,0,0,8.48,0l7.63-7.63,7.63,7.63a6,6,0,0,0,8.48-8.49L77.49,59.2a6,6,0,0,0-8.48,0l-7.63,7.63L53.74,59.2a6,6,0,0,0-8.48,0l-7.63,7.63L30,59.2a6,6,0,0,0-8.48,0L9.63,71.07a6,6,0,0,0,8.48,8.49Z"/><path d="M18.12,48.47l7.63-7.63,7.63,7.63a6,6,0,0,0,8.48,0l7.63-7.63,7.63,7.63a6,6,0,0,0,8.48,0l7.63-7.63,7.63,7.63A6,6,0,1,0,89.37,40L77.49,28.11a6,6,0,0,0-8.48,0l-7.63,7.63-7.63-7.63a6,6,0,0,0-8.48,0l-7.63,7.63L30,28.11a6,6,0,0,0-8.48,0L9.63,40a6,6,0,1,0,8.48,8.49Z"/>
		</symbol>
	</defs>
	<use xlink:href="#icon" x="0" y="0" fill="#000" />
</svg>